<svg xmlns="http://www.w3.org/2000/svg" viewBox="0 0 240 240" width="64" height="64">
  <!-- Fundo circular suave -->
  <circle cx="120" cy="100" r="102" fill="#EAF3F0"/>

  <!-- Corpo da nuvem -->
  <g transform="translate(25, 2) scale(1.9)">
    <path
      d="M83.034,44.719c0.94-5.371-0.068-10.837-2.902-15.559c-3.119-5.197-8.075-8.868-13.956-10.336
         c-1.805-0.451-3.657-0.68-5.506-0.68c-8.409,0-16.053,4.631-19.982,11.951c-1.879-1.284-4.1-1.975-6.421-1.975
         c-3.09,0-5.983,1.214-8.147,3.419c-1.808,1.842-2.936,4.263-3.206,6.81c-9.064,0.543-16.441,8.08-16.66,17.267
         c-0.113,4.732,1.624,9.226,4.89,12.65c3.267,3.426,7.671,5.374,12.405,5.487l56.547,0.005
         c8.088,0,14.667-6.579,14.667-14.667C94.763,51.995,89.827,46.085,83.034,44.719z"
      fill="#FFFFFF"
      stroke="#1E6B5C"
      stroke-width="2.2"
      stroke-linejoin="round"
    />
  </g>

  <!-- Óculos - lente esquerda -->
  <circle cx="76" cy="105" r="22" fill="#FCF6F0" stroke="#1E6B5C" stroke-width="6"/>
  <!-- Óculos - lente direita -->
  <circle cx="132" cy="105" r="22" fill="#FCF6F0" stroke="#1E6B5C" stroke-width="6"/>
  <!-- Ponte central -->
  <path d="M101 101 Q104 97 107 101" stroke="#1E6B5C" stroke-width="6" stroke-linecap="round" fill="none"/>
  <!-- Hastes laterais -->
  <path d="M45 105 L54 105" stroke="#1E6B5C" stroke-width="6" stroke-linecap="round"/>
  <path d="M156 105 L162 105" stroke="#1E6B5C" stroke-width="6" stroke-linecap="round"/>
</svg>
